<?xml version="1.0" encoding="utf-8"?>
<!-- Generator: Adobe Illustrator 20.1.0, SVG Export Plug-In . SVG Version: 6.00 Build 0)  -->
<svg version="1.1" id="Capa_1" xmlns="http://www.w3.org/2000/svg" xmlns:xlink="http://www.w3.org/1999/xlink" x="0px" y="0px"
	 viewBox="0 0 911.4 911.4" style="enable-background:new 0 0 911.4 911.4;" xml:space="preserve">
<style type="text/css">
	.st0{fill:#999999;}
	.st1{fill:#4CAF50;}
</style>
<path class="st0" d="M0,0v455.7h242.7v-176h-59.3v-71.9h59.3v-60.4c0-43.9,35.6-79.5,79.5-79.5h62v64.6h-44.4
	c-13.9,0-25.3,11.3-25.3,25.3v50H383l-9.5,71.9h-59.1v176h141.2V0H0z"/>
<path class="st1" d="M0,455.7v455.7h242.7v-176h-59.3v-71.9h59.3v-60.4c0-43.9,35.6-79.5,79.5-79.5h62v64.6h-44.4
	c-13.9,0-25.3,11.3-25.3,25.3v50H383l-9.5,71.9h-59.1v176h141.2V455.7H0z"/>
<path class="st0" d="M455.6,0v455.7h455.7V0H455.6z M816.9,163.9c0.1,2.7,0.2,5.4,0.2,8.1c0,108.4-87.9,196.2-196.2,196.2
	c-38.6,0-74.6-11.2-104.9-30.4c59.3,8.9,101-28.9,101.1-28.9c-52.9-4.1-63.3-48.1-63.3-48.1c18.7,3.1,30.4-1.3,30.4-1.3
	c-59.5-13.9-54.4-68.3-54.4-68.3c13.7,8.3,29.7,8.9,29.7,8.9C507,153.9,539.9,109,539.9,109c55.1,66.6,136,71.2,141.3,71.4
	c-1.2-5-1.8-10.2-1.8-15.6c0-38,30.8-68.8,68.8-68.8c19.8,0,37.7,8.4,50.4,21.7c3.5-1,6.9-2,10.1-3.1c19.5-6.5,33.4-13.9,33.4-13.9
	c-3.4,20.1-28.2,37-30,38.2C812,139,812,139,812,139h0.1c19.2-1.9,38.9-10.1,38.9-10.1C845.1,141.4,820.8,160.8,816.9,163.9z"/>
<path class="st1" d="M455.7,455.7v455.7h455.7V455.7H455.7z M817,619.6c0.1,2.7,0.2,5.4,0.2,8.1c0,108.4-87.9,196.2-196.2,196.2
	c-38.6,0-74.6-11.2-104.9-30.4c59.3,8.9,101-28.9,101.1-28.9c-52.9-4.1-63.3-48.1-63.3-48.1c18.7,3.1,30.4-1.3,30.4-1.3
	c-59.5-13.9-54.4-68.3-54.4-68.3c13.7,8.3,29.7,8.9,29.7,8.9c-52.5-46.2-19.6-91.1-19.6-91.1c55.1,66.6,136,71.2,141.3,71.4
	c-1.2-5-1.8-10.2-1.8-15.6c0-38,30.8-68.8,68.8-68.8c19.8,0,37.7,8.4,50.4,21.7c3.5-1,6.9-2,10.1-3.1c19.5-6.5,33.4-13.9,33.4-13.9
	c-3.4,20.1-28.2,37-30,38.2c-0.1,0.1-0.1,0.1-0.1,0.1h0.1c19.2-1.9,38.9-10.1,38.9-10.1C845.2,597.1,820.9,616.5,817,619.6z"/>
</svg>
